<svg xmlns="http://www.w3.org/2000/svg" xmlns:xlink="http://www.w3.org/1999/xlink" class="qodef-svg-opener-icon" x="0px" y="0px" viewBox="0 0 64 64" enable-background="new 0 0 64 64" xml:space="preserve"><circle fill="#F8F7F2" cx="32" cy="32" r="32"></circle><g><path fill="#D24227" d="M47.6,44c2.8-1.5,5-4.5,5-10.1v-1.2l-0.9,0.8c-1.1,0.9-2.5,1.5-4,1.5V22.5h0v-0.5h-5.8
		c-0.3-2-2-3.6-4.2-3.6c-2.2,0-4,1.6-4.2,3.6h-3.7c-0.3-2-2-3.6-4.2-3.6c-2.3,0-4.3,1.8-4.3,4.1s1.9,4.1,4.3,4.1
		c2.1,0,3.9-1.5,4.2-3.5h3.7c0.3,2,2.1,3.5,4.2,3.5c2.1,0,3.9-1.5,4.2-3.5h4.7v12c-1-0.1-2-0.4-2.8-1c-0.7-0.4-1.3-1-1.9-1.5
		c-1.5-1.3-3-2.6-5.2-2.6c-0.3,0-0.6,0-0.9,0.1c-1.4,0.2-2.6,0.9-3.6,2c-1-1.1-2.3-1.8-3.6-2c-0.3-0.1-0.6-0.1-0.9-0.1
		c-2.2,0-3.8,1.3-5.2,2.6c-0.6,0.5-1.3,1.1-1.9,1.5c-1,0.7-2.3,1-3.6,1c-1.6,0-3.2-0.6-4.4-1.5l-0.9-0.8v1.2
		c0,10.2,7.5,11.7,11.9,11.7c2.5,0,4.8-0.5,5.4-0.8c1.3-0.6,2.4-1.3,3.3-2.3c0.9,1,2,1.8,3.3,2.3c0.6,0.3,2.9,0.8,5.4,0.8
		c1.7,0,3.9-0.2,5.8-1.1C46.8,44.5,47.4,44.2,47.6,44z M25.5,25.4c-1.7,0-3.1-1.3-3.1-3c0-1.6,1.4-3,3.1-3c1.7,0,3.1,1.3,3.1,3
		C28.6,24.1,27.2,25.4,25.5,25.4z M37.7,25.4c-1.7,0-3.1-1.3-3.1-3c0-1.6,1.4-3,3.1-3c1.7,0,3.1,1.3,3.1,3
		C40.8,24.1,39.4,25.4,37.7,25.4z M46.5,43.4c-1.8,0.9-3.9,1.2-5.8,1.2c-2.5,0-4.5-0.5-5-0.7c-1.4-0.6-2.5-1.4-3.3-2.5L32,40.7
		l-0.5,0.6c-0.8,1.1-1.9,1.9-3.3,2.5c-0.4,0.2-2.4,0.7-5,0.7c-4.7,0-10.3-1.7-10.8-9.6c1.2,0.7,2.7,1.1,4.1,1.1c1.6,0,3-0.4,4.2-1.2
		c0.7-0.5,1.4-1.1,2.1-1.6c1.4-1.2,2.7-2.3,4.5-2.3c0.2,0,0.5,0,0.8,0.1c1.3,0.2,2.5,1,3.4,2.1l0.5,0.6l0.5-0.6
		c0.9-1.2,2.1-1.9,3.4-2.1c0.3,0,0.5-0.1,0.8-0.1c1.8,0,3.1,1.1,4.5,2.3c0.6,0.6,1.3,1.1,2.1,1.6c1,0.6,2.2,1,3.4,1.2
		c0.3,0,0.5,0,0.8,0c0.1,0,0.2,0,0.3,0c1.4,0,2.7-0.4,3.8-1.1c-0.2,3.9-1.8,6.3-3.8,7.7C47.3,43,46.9,43.2,46.5,43.4z"></path><path fill="#D24227" d="M40.7,46c-2.6,0-4.9-0.5-5.6-0.8c-1.2-0.5-2.3-1.2-3.1-2.1c-0.9,0.9-1.9,1.6-3.1,2.1
		c-0.7,0.3-3,0.8-5.6,0.8C18.7,46,11,44.4,11,33.9v-2l1.6,1.3c1.1,0.9,2.6,1.4,4.1,1.4c1.3,0,2.4-0.3,3.4-1c0.6-0.4,1.2-0.9,1.9-1.5
		c1.5-1.3,3.1-2.7,5.5-2.7c0.3,0,0.7,0,1,0.1c1.3,0.2,2.5,0.8,3.6,1.8c1-1,2.2-1.6,3.6-1.8c0.3-0.1,0.7-0.1,1-0.1
		c2.4,0,4,1.4,5.5,2.7l0,0c0.6,0.5,1.2,1.1,1.9,1.5c0.6,0.4,1.4,0.7,2.2,0.8V23.4h-4c-0.5,2-2.3,3.5-4.5,3.5c-2.2,0-4-1.5-4.5-3.5
		H30c-0.5,2-2.3,3.5-4.5,3.5c-2.5,0-4.6-2-4.6-4.4S23,18,25.5,18c2.2,0,4.1,1.5,4.5,3.6h3.1c0.4-2.1,2.3-3.6,4.5-3.6
		c2.2,0,4.1,1.5,4.5,3.6H48l0,13.1c1.3-0.1,2.5-0.6,3.4-1.4l1.6-1.3v2c0,6.4-2.8,9.2-5.2,10.4c-0.3,0.2-0.9,0.4-1.2,0.6
		C45.1,45.6,43.1,46,40.7,46z M32,42l0.3,0.3c0.8,0.9,1.9,1.7,3.2,2.2c0.6,0.3,2.8,0.7,5.3,0.7c2.3,0,4.1-0.3,5.7-1
		c0.3-0.1,0.8-0.4,1.1-0.5c3.1-1.7,4.8-5,4.8-9.8v-0.4l-0.3,0.3c-1.1,0.9-2.7,1.5-4.3,1.6l-0.4,0l0-13.1h-5.7l0-0.3
		c-0.2-1.9-1.9-3.3-3.9-3.3c-2,0-3.6,1.4-3.9,3.3l0,0.3h-4.4l0-0.3c-0.2-1.9-1.9-3.3-3.9-3.3c-2.1,0-3.9,1.7-3.9,3.7
		s1.7,3.7,3.9,3.7c1.9,0,3.6-1.4,3.8-3.2l0-0.3h4.4l0,0.3c0.3,1.8,1.9,3.2,3.8,3.2c1.9,0,3.6-1.4,3.8-3.2l0-0.3h5.3v12.7l-0.4,0
		c-1.1-0.1-2.1-0.5-2.9-1c-0.7-0.4-1.3-1-1.9-1.5l0,0c-1.4-1.2-2.9-2.5-5-2.5c-0.3,0-0.6,0-0.9,0.1c-1.3,0.2-2.5,0.9-3.4,1.9
		L32,32.5l-0.3-0.3c-1-1-2.1-1.7-3.4-1.9c-0.3-0.1-0.6-0.1-0.9-0.1c-2.1,0-3.6,1.3-5,2.5c-0.7,0.6-1.3,1.1-2,1.6
		c-1.1,0.7-2.4,1.1-3.8,1.1c-1.7,0-3.4-0.6-4.6-1.6l-0.3-0.3v0.4c0,9.9,7.2,11.4,11.6,11.4c2.4,0,4.7-0.5,5.3-0.7
		c1.3-0.5,2.3-1.3,3.2-2.2L32,42z M40.7,44.9c-2.6,0-4.7-0.5-5.1-0.7c-1.5-0.6-2.6-1.5-3.4-2.6L32,41.4l-0.2,0.2
		c-0.8,1.1-2,2-3.4,2.6c-0.5,0.2-2.5,0.7-5.1,0.7c-4.8,0-10.6-1.7-11.1-9.9l0-0.7l0.6,0.4c1.1,0.7,2.5,1.1,3.9,1.1
		c1.5,0,2.9-0.4,4-1.1c0.7-0.5,1.3-1,2-1.6c1.4-1.3,2.8-2.4,4.7-2.4c0.3,0,0.5,0,0.8,0.1c1.4,0.2,2.7,1,3.6,2.3l0.2,0.2l0.2-0.2
		c0.9-1.2,2.2-2,3.6-2.3c0.3,0,0.5-0.1,0.8-0.1c1.9,0,3.3,1.2,4.7,2.4l-0.2,0.3l0.2-0.3c0.6,0.6,1.3,1.1,2,1.6
		c0.9,0.6,2.1,1,3.2,1.1c0.2,0,0.5,0,0.8,0c0.1,0,0.2,0,0.3,0l0,0c1.3,0,2.6-0.4,3.6-1l0.6-0.4l0,0.7c-0.2,3.7-1.6,6.4-4,8
		c-0.4,0.2-0.8,0.5-1.2,0.7C45,44.5,43,44.9,40.7,44.9z M32,40.1l0.8,1.1c0.8,1,1.8,1.8,3.1,2.4c0.3,0.1,2.3,0.6,4.8,0.6
		c2.2,0,4.1-0.4,5.6-1.1c0.4-0.2,0.8-0.4,1.1-0.6c2.1-1.4,3.3-3.7,3.6-6.8c-1,0.5-2.2,0.8-3.4,0.8c-0.1,0-0.2,0-0.3,0
		c-0.3,0-0.6,0-0.9,0c-1.3-0.1-2.5-0.5-3.6-1.2c-0.8-0.5-1.4-1.1-2.1-1.6l0,0c-1.3-1.2-2.6-2.2-4.2-2.2c-0.2,0-0.5,0-0.7,0.1
		c-1.2,0.2-2.3,0.9-3.1,2l-0.8,1l-0.8-1c-0.8-1.1-1.9-1.8-3.1-2c-0.2,0-0.5-0.1-0.7-0.1c-1.6,0-2.9,1.1-4.2,2.2
		c-0.7,0.6-1.4,1.2-2.1,1.7c-1.3,0.8-2.8,1.3-4.4,1.3c-1.3,0-2.6-0.3-3.7-0.8c0.7,7.1,6,8.6,10.3,8.6c2.4,0,4.4-0.5,4.8-0.7
		c1.3-0.6,2.4-1.4,3.1-2.4L32,40.1z M37.7,25.7c-1.9,0-3.5-1.5-3.5-3.3s1.6-3.3,3.5-3.3c1.9,0,3.5,1.5,3.5,3.3S39.6,25.7,37.7,25.7z
		 M37.7,19.8c-1.5,0-2.8,1.2-2.8,2.6s1.2,2.6,2.8,2.6c1.5,0,2.8-1.2,2.8-2.6S39.2,19.8,37.7,19.8z M25.5,25.7
		c-1.9,0-3.5-1.5-3.5-3.3s1.6-3.3,3.5-3.3c1.9,0,3.5,1.5,3.5,3.3S27.4,25.7,25.5,25.7z M25.5,19.8c-1.5,0-2.8,1.2-2.8,2.6
		S24,25,25.5,25c1.5,0,2.8-1.2,2.8-2.6S27,19.8,25.5,19.8z"></path></g></svg>