<svg xmlns="http://www.w3.org/2000/svg" xmlns:xlink="http://www.w3.org/1999/xlink" x="0px" y="0px" viewBox="0 0 64 64" enable-background="new 0 0 64 64" xml:space="preserve"><g><circle fill="currentColor" cx="32" cy="32" r="32"></circle></g><g><path d="M27.2,38.1l5.2-5.2l-5.2-5.2c-0.5-0.4-0.5-0.9,0-1.3c0.4-0.4,0.9-0.4,1.3,0l5.2,5.2l5.2-5.2c0.4-0.5,0.9-0.5,1.3,0
		c0.4,0.4,0.4,0.9,0,1.3L35,32.9l5.2,5.2c0.5,0.4,0.5,0.9,0,1.3s-0.9,0.4-1.3,0l-5.2-5.2l-5.2,5.2c-0.4,0.5-0.9,0.5-1.3,0
		S26.7,38.5,27.2,38.1z"></path></g></svg>