<svg xmlns="http://www.w3.org/2000/svg" xmlns:xlink="http://www.w3.org/1999/xlink" x="0px" y="0px" viewBox="0 0 18 23" enable-background="new 0 0 18 23" xml:space="preserve"><g><path fill="currentColor" d="M18,19.9c0-0.1,0-0.2-0.1-0.2c0-0.1,0-0.1-0.1-0.2c0-0.1-0.1-0.3-0.2-0.6l-0.3-0.8
                            c-0.2-0.4-0.4-1.1-0.6-1.5L10.4,1.2C10.3,0.8,9.9,0,9.1,0C9.1,0,9,0,9,0c0,0-0.1,0-0.1,0C8.1,0,7.7,0.8,7.6,1.2L1.3,16.6
                            c-0.2,0.4-0.4,1.1-0.6,1.5l-0.3,0.8c-0.1,0.3-0.2,0.5-0.2,0.6c0,0.1-0.1,0.1-0.1,0.2c0,0.1-0.1,0.2-0.1,0.3c-0.1,0.3,0,0.7,0.4,1.1
                            c0.1,0,0.1,0.1,0.2,0.1c0.1,0.1,0.3,0.2,0.5,0.3C1.3,21.5,3.9,23,8.7,23c0.1,0,0.2,0,0.3,0c0.1,0,0.2,0,0.3,0
                            c4.8,0,7.4-1.5,7.5-1.6c0.2-0.1,0.4-0.2,0.5-0.3c0.1-0.1,0.2-0.1,0.2-0.2C18,20.6,18,20.2,18,19.9z M10.8,4.9l1,2.5
                            c-0.3,0.1-0.6,0.2-0.9,0c-0.3-0.1-0.6-0.3-0.8-0.7C10,6.5,9.9,6.1,10,5.8C10.2,5.4,10.4,5.2,10.8,4.9C10.7,5,10.8,5,10.8,4.9z
                             M5.7,8.5C6.4,8.9,7,9.4,7.3,10.1c0.3,0.7,0.3,1.6,0,2.3c-0.3,0.8-0.9,1.3-1.6,1.7c-0.7,0.3-1.5,0.3-2.2,0L5.7,8.5z M3.1,15.1
                            c1,0.4,2.1,0.4,3-0.1c1-0.4,1.8-1.2,2.2-2.2c0.4-1,0.4-2.1,0-3.1C7.8,8.7,7.1,8,6.1,7.6l2.4-6C8.7,1.3,8.8,1,8.9,1c0,0,0,0,0,0
                            C8.9,1.1,9,1.1,9,1.1s0.1,0,0.1-0.1c0,0,0,0,0,0c0.1,0,0.2,0.2,0.4,0.6l1,2.4c-0.1,0-0.1,0-0.2,0c-0.6,0.3-1,0.8-1.2,1.4
                            C8.8,6,8.9,6.7,9.2,7.2c0.3,0.6,0.8,1,1.4,1.2c0.5,0.2,1.1,0.2,1.7-0.1l3.5,8.6c0.1,0.3,0.3,0.8,0.5,1.2c-0.1,0-0.1,0-0.2,0
                            c-0.1,0-6.4,3.3-14.2,0c0,0-0.1,0-0.1,0c0.2-0.4,0.4-0.9,0.5-1.2L3.1,15.1z M16.3,20.5c0,0-2.4,1.4-7,1.4c-0.1,0-0.2,0-0.3,0
                            c-0.1,0-0.2,0-0.3,0c-4.6,0-7-1.4-7-1.4C1.3,20.3,1,20.1,1,20.1c0,0,0,0,0,0s0.1-0.3,0.3-0.7l0.1-0.1c0,0,0.1,0.1,0.1,0.1
                            c4.3,1.8,8.2,1.7,10.6,1.3c2.7-0.4,4.4-1.3,4.4-1.4c0,0,0,0,0.1,0l0.1,0.1C16.8,19.7,17,20,17,20s0,0,0,0
                            C17,20.1,16.7,20.3,16.3,20.5z"></path><path fill="currentColor" d="M11.2,18.4c1.1,0,2-0.9,2-2c0-1.1-0.9-2-2-2s-2,0.9-2,2C9.3,17.5,10.1,18.4,11.2,18.4z M11.2,15.5
                            c0.5,0,0.9,0.4,0.9,0.9c0,0.5-0.4,0.9-0.9,0.9s-0.9-0.4-0.9-0.9C10.3,15.9,10.7,15.5,11.2,15.5z"></path></g></svg>