<svg xmlns="http://www.w3.org/2000/svg" xmlns:xlink="http://www.w3.org/1999/xlink" class="qodef-svg-close-icon" x="0px" y="0px" viewBox="0 0 18 18" enable-background="new 0 0 18 18" xml:space="preserve"><g><path d="M17.5,15.3c0.7,0.7,0.7,1.5,0,2.2c-0.3,0.3-0.7,0.5-1.1,0.5c-0.4,0-0.8-0.2-1.1-0.5L9,11.2l-6.3,6.3C2.4,17.8,2,18,1.6,18
		c-0.4,0-0.7-0.2-1.1-0.5c-0.7-0.7-0.7-1.4,0-2.2L6.8,9L0.5,2.7c-0.7-0.7-0.7-1.5,0-2.2c0.7-0.7,1.4-0.7,2.2,0L9,6.8l6.3-6.3
		c0.7-0.7,1.5-0.7,2.2,0c0.7,0.7,0.7,1.4,0,2.2L11.2,9L17.5,15.3z"></path></g></svg>